<svg width="1344" height="12" viewBox="0 0 1344 12" fill="none" xmlns="http://www.w3.org/2000/svg">
<path d="M642 6C642 2.68629 644.686 0 648 0C651.314 0 654 2.68629 654 6C654 9.31371 651.314 12 648 12C644.686 12 642 9.31371 642 6Z" fill="#46856E"/>
<path d="M666 6C666 2.68629 668.686 0 672 0C675.314 0 678 2.68629 678 6C678 9.31371 675.314 12 672 12C668.686 12 666 9.31371 666 6Z" fill="#E5E5E5"/>
<path d="M690 6C690 2.68629 692.686 0 696 0C699.314 0 702 2.68629 702 6C702 9.31371 699.314 12 696 12C692.686 12 690 9.31371 690 6Z" fill="#E5E5E5"/>
</svg>
